<?xml version="1.0" encoding="UTF-8" standalone="no"?>
<svg
   xmlns:dc="http://purl.org/dc/elements/1.1/"
   xmlns:cc="http://creativecommons.org/ns#"
   xmlns:rdf="http://www.w3.org/1999/02/22-rdf-syntax-ns#"
   xmlns:svg="http://www.w3.org/2000/svg"
   xmlns="http://www.w3.org/2000/svg"
   xmlns:sodipodi="http://sodipodi.sourceforge.net/DTD/sodipodi-0.dtd"
   xmlns:inkscape="http://www.inkscape.org/namespaces/inkscape"
   version="1.1"
   id="Layer_1"
   x="0px"
   y="0px"
   viewBox="0 0 492.8 492.8"
   style="enable-background:new 0 0 492.8 492.8;"
   xml:space="preserve"
   inkscape:version="0.91 r13725"
   sodipodi:docname="appicon.svg"><metadata
     id="metadata55"><rdf:RDF><cc:Work
         rdf:about=""><dc:format>image/svg+xml</dc:format><dc:type
           rdf:resource="http://purl.org/dc/dcmitype/StillImage" /><dc:title /></cc:Work></rdf:RDF></metadata><defs
     id="defs53" /><sodipodi:namedview
     pagecolor="#ffffff"
     bordercolor="#666666"
     borderopacity="1"
     objecttolerance="10"
     gridtolerance="10"
     guidetolerance="10"
     inkscape:pageopacity="0"
     inkscape:pageshadow="2"
     inkscape:window-width="1366"
     inkscape:window-height="705"
     id="namedview51"
     showgrid="false"
     inkscape:zoom="0.47889612"
     inkscape:cx="-120.0678"
     inkscape:cy="246.39999"
     inkscape:window-x="-8"
     inkscape:window-y="-8"
     inkscape:window-maximized="1"
     inkscape:current-layer="Layer_1" /><path
     style="fill:#049bff;fill-opacity:1"
     d="M462.4,136c0,112.8-112,327.2-216,327.2S30.4,248.8,30.4,136s112-136,216-136S462.4,23.2,462.4,136z"
     id="path3" /><path
     style="fill:#0f73bc;fill-opacity:1"
     d="M462.4,165.6c0,112.8-112,327.2-216,327.2s-216-214.4-216-327.2s112-136.8,216-136.8  S462.4,52.8,462.4,165.6z"
     id="path5" /><path
     style="fill:#198fe0;fill-opacity:1"
     d="M462.4,148c0,112.8-112,327.2-216,327.2S30.4,260.8,30.4,148s112-136.8,216-136.8  S462.4,34.4,462.4,148z"
     id="path7" /><path
     style="fill:#1660d3;fill-opacity:1"
     d="M246.4,11.2c104,0,216,23.2,216,136.8s-112,327.2-216,327.2"
     id="path9" /><path
     inkscape:connector-curvature="0"
     style="fill:#ffffff;stroke:#ffffff;stroke-width:3;stroke-miterlimit:10"
     stroke-miterlimit="10"
     d="m 334.83,172.68238 c 0,-3.11908 -1.42232,-6.23816 -3.55581,-8.3648 L 247.49915,83.505184 c -3.27135,-3.260843 -8.39173,-4.253276 -12.65871,-2.26841 -4.26698,1.70131 -7.11163,5.95459 -7.11163,10.63321 l 0,109.876506 -37.69165,-38.27957 c -4.40922,-4.67861 -11.80532,-4.67861 -16.49899,-0.14177 -4.69368,4.39506 -4.69368,11.76742 -0.14224,16.44603 l 54.33288,55.15094 0,12.33453 -66.13819,62.80684 c -4.69367,4.39506 -4.83591,11.76742 -0.42669,16.44603 4.40921,4.67862 11.80531,4.82039 16.49898,0.42533 l 50.0659,-47.63679 0,115.26402 c 0,4.67861 2.70242,8.9319 7.11163,10.63321 1.56456,0.56711 3.12912,0.99243 4.40922,0.99243 2.84465,0 5.83154,-1.1342 8.10726,-3.26085 l 83.06387,-80.10353 c 2.13349,-2.12664 3.55582,-4.96216 3.55582,-8.08124 0,-3.11907 -1.13786,-5.9546 -3.27135,-8.36479 l -63.43577,-64.36638 64.0047,-60.68021 c 2.13349,-2.41019 3.55581,-5.52927 3.55581,-8.64834 l 0,0 z m -28.87323,141.35084 -54.9018,53.02428 0,-108.45876 54.9018,55.43448 z m -55.04404,-88.89365 0,-105.76502 55.32851,53.4496 -55.32851,52.31542 z m 0,0"
     id="path37" /></svg>